<?xml version="1.0" encoding="UTF-8" standalone="no"?>
<!-- Created with Inkscape (http://www.inkscape.org/) -->

<svg
   xmlns:dc="http://purl.org/dc/elements/1.1/"
   xmlns:cc="http://creativecommons.org/ns#"
   xmlns:rdf="http://www.w3.org/1999/02/22-rdf-syntax-ns#"
   xmlns:svg="http://www.w3.org/2000/svg"
   xmlns="http://www.w3.org/2000/svg"
   xmlns:sodipodi="http://sodipodi.sourceforge.net/DTD/sodipodi-0.dtd"
   xmlns:inkscape="http://www.inkscape.org/namespaces/inkscape"
   id="svg2"
   version="1.1"
   inkscape:version="0.48.5 r10040"
   width="382"
   height="378"
   sodipodi:docname="logo.svg"
   inkscape:export-filename="/home/inf4/stettberger/git/studenten/clang-hash/contrib/logo.png"
   inkscape:export-xdpi="257.57999"
   inkscape:export-ydpi="257.57999">
  <metadata
     id="metadata8">
    <rdf:RDF>
      <cc:Work
         rdf:about="">
        <dc:format>image/svg+xml</dc:format>
        <dc:type
           rdf:resource="http://purl.org/dc/dcmitype/StillImage" />
        <dc:title></dc:title>
      </cc:Work>
    </rdf:RDF>
  </metadata>
  <defs
     id="defs6" />
  <sodipodi:namedview
     pagecolor="#ffffff"
     bordercolor="#666666"
     borderopacity="1"
     objecttolerance="10"
     gridtolerance="10"
     guidetolerance="10"
     inkscape:pageopacity="0"
     inkscape:pageshadow="2"
     inkscape:window-width="1278"
     inkscape:window-height="472"
     id="namedview4"
     showgrid="false"
     inkscape:zoom="0.88294812"
     inkscape:cx="90.962767"
     inkscape:cy="221.88505"
     inkscape:window-x="1280"
     inkscape:window-y="490"
     inkscape:window-maximized="0"
     inkscape:current-layer="text2989" />
  <g
     style="font-size:144px;font-style:normal;font-variant:normal;font-weight:500;font-stretch:normal;line-height:125%;letter-spacing:0px;word-spacing:0px;fill:#000000;fill-opacity:1;stroke:none;font-family:TeX Gyre Chorus;-inkscape-font-specification:TeX Gyre Chorus Medium"
     id="text2989">
    <path
       id="path3018"
       style="fill:#000000"
       d="m 41.318114,140.93644 c 0.47765,-1.2375 2.27482,-6.70339 3.99372,-12.14643 C 61.870324,76.356107 105.98406,36.234019 160.9146,23.647616 c 14.64445,-3.355527 40.84485,-4.514833 55.84166,-2.470861 14.40059,1.962712 32.86754,7.466367 45.63857,13.601542 18.13778,8.713349 29.75226,16.977823 44.02611,31.327504 21.85751,21.97362 32.55565,40.786339 42.56649,74.853319 0.58672,1.9966 3.4374,2.64178 4.92243,1.11406 1.13328,-1.16585 0.83214,-3.05923 -1.89058,-11.88674 -9.26702,-30.04527 -24.4152,-53.605305 -48.4429,-75.343514 C 277.75994,31.486419 242.0405,16.522378 207.09823,14.42508 178.05328,12.681749 156.00394,16.375572 130.736,27.217688 108.88302,36.594492 99.023404,43.453709 79.838534,62.626457 c -13.98588,13.977045 -22.13797,25.041634 -30.03507,40.765693 -7.88152,15.69304 -14.39305,34.75542 -13.05935,38.23098 0.88421,2.30422 3.57552,1.90017 4.574,-0.68669 z m 236.088666,42.45 c 0,-12.51111 0.35655,-18.15655 1.2,-19 1.25494,-1.25494 14.34168,-1.69684 17.24599,-0.58235 3.28333,1.25993 4.05078,4.77907 4.55401,20.88235 l 0.5,16 2.5,0 2.5,0 -0.0625,-16.5 c -0.0684,-18.05402 -0.865,-21.26833 -6.12509,-24.71487 -3.32336,-2.17756 -15.69679,-2.39975 -22.5624,-0.40517 l -4.75,1.37996 0,20.37004 0,20.37004 2.5,0 2.5,0 0,-17.8 z m -68.5,14.8 c 0,-2.40976 -0.26168,-2.5106 -7.25,-2.79381 l -7.25,-0.29381 0,-27.45619 0,-27.45619 -10,0 c -9.95244,0 -10,0.0117 -10,2.45619 0,2.35538 0.29756,2.46825 7.25,2.75 l 7.25,0.29381 0.26747,24.75 0.26747,24.75 -7.51747,0 -7.51747,0 0,3.02361 0,3.02362 17.25,-0.27362 17.25,-0.27361 0,-2.5 z m 26.26505,-1.75393 c -4.64973,-0.4544 -6.76505,-3.22409 -6.76505,-8.85779 0,-7.57605 2.60929,-8.90454 16.75,-8.52806 l 5.25,0.13978 0,7.95469 0,7.95468 -3.75,0.60293 c -6.41461,1.03135 -7.63928,1.10959 -11.48495,0.73377 z m 17.09612,3.43368 3.63883,-1.19579 0,-16.49198 c 0,-14.2285 -0.24687,-16.85553 -1.79875,-19.14085 -2.59644,-3.82358 -7.14307,-5.35833 -15.70125,-5.30009 -10.28767,0.07 -13.21469,0.92294 -12.81492,3.73431 0.30435,2.14031 0.64049,2.203 10.01337,1.86765 9.28506,-0.33221 9.80721,-0.23824 12.25,2.20454 1.7193,1.7193 2.55155,3.64364 2.55155,5.8997 l 0,3.34815 -5.75,-0.67097 c -8.28321,-0.96658 -16.11723,0.47827 -19.17555,3.53658 -2.08196,2.08196 -2.57387,3.67581 -2.89646,9.38482 -0.36495,6.45861 -0.2095,7.07736 2.55547,10.1719 2.10237,2.35296 4.20521,3.51318 7.3553,4.05822 5.29238,0.9157 14.75458,0.24276 19.77241,-1.40619 z m -98.22277,0.26763 c 1.92306,-0.73115 2.1696,-1.27395 1.43748,-3.16494 -0.48603,-1.25534 -1.48942,-2.09742 -2.22978,-1.87127 -3.74524,1.14397 -14.55994,1.05724 -16.8461,-0.13511 -4.00338,-2.08797 -5.99668,-7.28019 -5.99845,-15.62493 -0.002,-8.56797 2.0169,-13.81289 5.9018,-15.33382 1.42816,-0.55911 6.27032,-0.79896 10.76036,-0.53299 7.65375,0.45338 8.19799,0.35252 8.71241,-1.61458 0.30177,-1.154 0.0412,-2.41185 -0.57916,-2.79523 -2.14491,-1.32563 -9.89539,-2.00612 -15.24131,-1.3382 -11.97343,1.49599 -16.02092,7.67127 -15.38616,23.47481 0.33376,8.30986 0.74794,10.24461 2.84969,13.31192 4.59454,6.70529 16.92416,9.3104 26.61922,5.62434 z m 176.88242,-6.33565 c -2.99156,-2.99156 -3.8339,-7.38082 -3.37131,-17.5672 0.42153,-9.28237 2.15132,-11.91393 8.52311,-12.96641 4.09787,-0.67687 15.00955,0.2714 16.14275,1.40288 0.93581,0.93439 0.86937,22.35886 -0.0799,25.75081 -1.05844,3.78224 -5.44175,5.76819 -12.7313,5.76819 -5.09209,0 -6.48814,-0.39302 -8.48339,-2.38827 z M 208.64275,340.1823 c 65.17366,-5.40054 121.22777,-49.15734 141.58169,-110.52108 6.19836,-18.68706 7.65149,-28.06326 7.66764,-49.47478 l 0.0147,-19.5 -7.44766,-1.84533 c -14.56054,-3.6077 -25.46312,-0.037 -28.02247,9.1776 -0.5603,2.01725 -1.02123,7.50988 -1.02429,12.20584 -0.007,10.10745 2.46203,16.24986 7.75048,19.2846 3.84184,2.20461 15.55049,2.65396 19.13716,0.73444 1.25294,-0.67056 2.53562,-0.96164 2.8504,-0.64686 0.92016,0.92016 -2.60042,17.3117 -5.81832,27.08971 -4.32227,13.13375 -14.86621,33.66963 -22.59136,44 -8.87933,11.87379 -24.68723,27.46333 -35.84752,35.35234 -17.8591,12.62427 -40.70285,22.18974 -63.98642,26.79334 -12.08584,2.3896 -41.06295,2.3846 -54.18631,-0.009 -50.64726,-9.23936 -91.569396,-39.81696 -114.607486,-85.63668 -3.45674,-6.875 -7.81487,-17.5625 -9.68474,-23.75 -3.05433,-10.10697 -3.63454,-11.25 -5.71061,-11.25 -3.2698,0 -3.03914,3.04409 1.20279,15.87335 18.53897,56.06929 64.460096,97.18513 122.486356,109.66915 14.15249,3.04482 29.36004,3.85176 46.23597,2.45336 z m -28.13383,11.92241 C 136.19118,348.70753 91.821484,326.20218 63.460604,292.73504 48.535674,275.12293 36.297894,254.01164 29.891344,234.82496 9.9106136,174.98566 22.593314,109.98781 63.324624,63.482071 88.463734,34.779014 120.94992,15.442003 157.79365,7.2505212 c 40.22147,-8.9424595 84.43714,-2.8390735 120.11313,16.5800238 17.21169,9.368637 26.2995,16.175029 40.53082,30.355896 27.07572,26.979728 42.45669,56.209209 49.68367,94.417159 2.71189,14.33736 2.42767,46.55962 -0.54172,61.41663 -5.04977,25.26589 -16.941,52.80783 -30.6667,71.02885 -31.64479,42.0088 -77.66104,67.58508 -128.00607,71.14702 -14.42921,1.02087 -13.86406,1.02269 -28.39786,-0.0914 z" />
    <path
       id="path3013"
       style="fill:#ffffff"
       d="m 267.02115,246.47107 -4.73891,12.66189 -2.47248,7.09833 c -0.41208,1.53476 -1.23623,3.45324 -1.85436,4.98802 l -21.01603,0 8.03554,-23.21347 22.04624,-1.53477 m 35.85089,-8.63311 -20.60397,0 5.56307,-15.1559 5.76912,-16.11513 -14.21673,5.17987 c -3.29663,9.78417 -3.50268,10.74342 -4.73891,14.00481 -1.23623,3.26139 -1.64832,4.60433 -2.88456,7.48203 -0.61811,1.53476 -1.23624,3.06954 -1.64832,4.60432 l -22.04624,0.38369 5.56307,-14.96405 5.97516,-16.69067 -14.0107,5.17987 -5.15099,14.58036 c -1.03018,2.494 -1.85436,5.17986 -2.67851,7.48202 -0.20604,0.76738 -1.0302,2.68585 -1.64832,4.79617 l -21.01604,0.38369 -3.29663,3.64509 c -2.88455,3.64508 -5.15099,6.33094 -6.59327,8.44126 l 26.99119,-1.91847 c -0.61811,2.494 -1.23624,4.22064 -1.64832,4.98802 l -1.03019,2.49401 c -0.82415,2.68584 -2.0604,5.94725 -3.50268,9.97603 0,0 -0.82416,2.49401 -1.64832,4.60433 l -21.63415,0 c -3.70871,4.41245 -5.151,6.33094 -9.68387,13.04557 l 26.99119,-2.30217 -12.9805,35.10796 17.30733,-7.86572 9.27178,-28.00963 21.42812,-1.53477 c -1.44226,3.2614 -2.47247,6.33095 -2.88456,6.90648 l -4.53287,12.47004 c -0.20604,0.95924 -2.47247,6.9065 -6.38722,18.0336 l 17.30733,-7.86572 c 2.47247,-8.63308 7.41743,-23.789 9.8899,-30.50364 l 18.7496,-1.34292 5.35703,-6.13908 -21.63416,0 c 1.64832,-5.17987 1.64833,-5.37173 4.12079,-12.2782 l 4.32684,-13.42927 18.13148,-1.34293 5.35703,-6.33095"
       inkscape:connector-curvature="0" />
  </g>
  <flowRoot
     xml:space="preserve"
     id="flowRoot2993"
     style="fill:black;stroke:none;stroke-opacity:1;stroke-width:1px;stroke-linejoin:miter;stroke-linecap:butt;fill-opacity:1;font-family:Sans;font-style:normal;font-weight:normal;font-size:40px;line-height:125%;letter-spacing:0px;word-spacing:0px"><flowRegion
       id="flowRegion2995"><rect
         id="rect2997"
         width="168.17796"
         height="155.36441"
         x="-850.5"
         y="-91.296608" /></flowRegion><flowPara
       id="flowPara2999" /></flowRoot>  <flowRoot
     xml:space="preserve"
     id="flowRoot3001"
     style="fill:black;stroke:none;stroke-opacity:1;stroke-width:1px;stroke-linejoin:miter;stroke-linecap:butt;fill-opacity:1;font-family:Sans;font-style:normal;font-weight:normal;font-size:40px;line-height:125%;letter-spacing:0px;word-spacing:0px"><flowRegion
       id="flowRegion3003"><rect
         id="rect3005"
         width="315.53391"
         height="507.73727"
         x="-866.51697"
         y="-304.32202" /></flowRegion><flowPara
       id="flowPara3007" /></flowRoot>  <flowRoot
     xml:space="preserve"
     id="flowRoot3009"
     style="fill:black;stroke:none;stroke-opacity:1;stroke-width:1px;stroke-linejoin:miter;stroke-linecap:butt;fill-opacity:1;font-family:Sans;font-style:normal;font-weight:normal;font-size:40px;line-height:125%;letter-spacing:0px;word-spacing:0px"><flowRegion
       id="flowRegion3011"><rect
         id="rect3013"
         width="297.91525"
         height="256.27118"
         x="-890.54236"
         y="-118.52542" /></flowRegion><flowPara
       id="flowPara3015" /></flowRoot></svg>
